<svg
  xmlns="http://www.w3.org/2000/svg"
  view-box="0 0 18 18"
  height="18"
  width="18"
  fill="#ee4d2d"
>
  <path
    d="M14.6 12.7h-1.3v-1.3c0-.2-.2-.4-.4-.4s-.4.2-.4.4V13c0 .2.2.4.4.4h1.7c.2 0 .4-.2.4-.4s-.2-.3-.4-.3z"
  ></path>
  <path
    d="M12.9 8.8c-2.3 0-4.1 1.8-4.1 4.1s1.8 4.1 4.1 4.1 4.1-1.8 4.1-4.1c0-2.2-1.8-4.1-4.1-4.1zm0 7.4c-1.8 0-3.3-1.5-3.3-3.3s1.5-3.3 3.3-3.3 3.3 1.5 3.3 3.3c0 1.9-1.4 3.3-3.3 3.3z"
  ></path>
  <path
    d="M8 15.2H2.5c-.4 0-.7-.3-.7-.7V7.8H16V3.6c0-.7-.6-1.4-1.4-1.4h-2v-1c0-.1-.1-.2-.2-.2h-.6c-.1 0-.2.1-.2.2v1.1H5.3V1.2c0-.1-.1-.2-.2-.2h-.6c-.1 0-.2.1-.2.2v1.1H2.4c-.8 0-1.4.6-1.4 1.3v11c0 .8.6 1.4 1.4 1.4H8c.2 0 .4-.2.4-.4s-.2-.4-.4-.4zM1.8 3.8c0-.4.3-.7.7-.7h1.8v.7c0 .1.1.2.2.2h.6c.1 0 .2-.1.2-.2v-.7h6.3v.7c0 .1.1.2.2.2h.6c.1 0 .2-.1.2-.2v-.7h1.9c.4 0 .7.3.7.7V7H1.8z"
  ></path>
  <path
    d="M5.1 13.4c.2 0 .4-.2.4-.4v-1.3h1.3c.2 0 .4-.2.4-.4-.1-.1-.2-.3-.4-.3H5.5V9.8c0-.2-.2-.4-.4-.4s-.4.2-.4.4V11H3.5c-.2 0-.4.2-.4.4s.2.4.4.4h1.3V13c-.1.2.1.4.3.4z"
  ></path>
</svg>
